{
  "asset": {
    "generator": "Khronos glTF Blender I/O v4.1.62",
    "version": "2.0"
  },
  "scene": 0,
  "scenes": [
    {
      "name": "Scene",
      "nodes": [
        0,
        1,
        2
      ]
    }
  ],
  "nodes": [
    {
      "mesh": 0,
      "name": "base_high",
      "translation": [
        0.025873662903904915,
        0,
        -0.01306971162557602
      ],
      "rotation": [
        0,
        0,
        0,
        1
      ],
      "scale": [
        1,
        1,
        1
      ]
    },
    {
      "mesh": 1,
      "name": "mid_high",
      "translation": [
        0,
        0.1142779290676117,
        0
      ],
      "rotation": [
        0,
        0,
        0,
        1
      ],
      "scale": [
        1,
        1,
        1
      ]
    },
    {
      "mesh": 2,
      "name": "u_high",
      "translation": [
        0.002458038507029414,
        0.1224265992641449,
        -0.0063390592113137245
      ],
      "rotation": [
        0,
        0,
        0,
        1
      ],
      "scale": [
        1,
        1,
        1
      ]
    }
  ],
  "materials": [
    {
      "doubleSided": true,
      "name": "metallic",
      "pbrMetallicRoughness": {
        "baseColorFactor": [
          0.5775080919265747,
          0.5775080919265747,
          0.5775080919265747,
          1
        ],
        "roughnessFactor": 0.5,
        "metallicFactor": 1
      },
      "emissiveFactor": [
        0,
        0,
        0
      ],
      "alphaMode": "OPAQUE"
    },
    {
      "doubleSided": true,
      "name": "blue_plastic",
      "pbrMetallicRoughness": {
        "baseColorFactor": [
          0.006511824205517769,
          0.07227184623479843,
          0.2746773660182953,
          1
        ],
        "metallicFactor": 0,
        "roughnessFactor": 0.26818180084228516
      },
      "emissiveFactor": [
        0,
        0,
        0
      ],
      "alphaMode": "OPAQUE"
    },
    {
      "doubleSided": true,
      "name": "Emission",
      "pbrMetallicRoughness": {
        "baseColorFactor": [
          0.05951027199625969,
          0.4793206453323364,
          0.4125429093837738,
          1
        ],
        "metallicFactor": 0,
        "roughnessFactor": 0.13636362552642822
      },
      "emissiveFactor": [
        0,
        0,
        0
      ],
      "alphaMode": "OPAQUE"
    }
  ],
  "meshes": [
    {
      "name": "Mesh",
      "primitives": [
        {
          "attributes": {
            "POSITION": 0,
            "NORMAL": 1,
            "TEXCOORD_0": 2
          },
          "indices": 3,
          "material": 0,
          "mode": 4
        }
      ]
    },
    {
      "name": "Mesh",
      "primitives": [
        {
          "attributes": {
            "POSITION": 4,
            "NORMAL": 5,
            "TEXCOORD_0": 6
          },
          "indices": 7,
          "material": 1,
          "mode": 4
        }
      ]
    },
    {
      "name": "Mesh",
      "primitives": [
        {
          "attributes": {
            "POSITION": 8,
            "NORMAL": 9,
            "TEXCOORD_0": 10
          },
          "indices": 11,
          "material": 2,
          "mode": 4
        }
      ]
    }
  ],
  "accessors": [
    {
      "bufferView": 0,
      "componentType": 5126,
      "count": 4866,
      "max": [
        1.6414824724197388,
        0.04440374672412872,
        1.4278684854507446
      ],
      "min": [
        -1.6414823532104492,
        0,
        -2.2100489139556885
      ],
      "type": "VEC3",
      "byteOffset": 0
    },
    {
      "bufferView": 1,
      "componentType": 5126,
      "count": 4866,
      "type": "VEC3",
      "byteOffset": 0
    },
    {
      "bufferView": 2,
      "componentType": 5126,
      "count": 4866,
      "type": "VEC2",
      "byteOffset": 0
    },
    {
      "bufferView": 3,
      "componentType": 5123,
      "count": 29184,
      "type": "SCALAR",
      "byteOffset": 0
    },
    {
      "bufferView": 4,
      "componentType": 5126,
      "count": 1114,
      "max": [
        1.4944040775299072,
        0,
        1.2675994634628296
      ],
      "min": [
        -1.4944039583206177,
        -0.07000001519918442,
        -2.057466506958008
      ],
      "type": "VEC3",
      "byteOffset": 0
    },
    {
      "bufferView": 5,
      "componentType": 5126,
      "count": 1114,
      "type": "VEC3",
      "byteOffset": 0
    },
    {
      "bufferView": 6,
      "componentType": 5126,
      "count": 1114,
      "type": "VEC2",
      "byteOffset": 0
    },
    {
      "bufferView": 7,
      "componentType": 5123,
      "count": 6672,
      "type": "SCALAR",
      "byteOffset": 0
    },
    {
      "bufferView": 8,
      "componentType": 5126,
      "count": 12258,
      "max": [
        1.045104742050171,
        0.13919366896152496,
        0.7744100093841553
      ],
      "min": [
        -1.0451048612594604,
        0,
        -1.5685151815414429
      ],
      "type": "VEC3",
      "byteOffset": 0
    },
    {
      "bufferView": 9,
      "componentType": 5126,
      "count": 12258,
      "type": "VEC3",
      "byteOffset": 0
    },
    {
      "bufferView": 10,
      "componentType": 5126,
      "count": 12258,
      "type": "VEC2",
      "byteOffset": 0
    },
    {
      "bufferView": 11,
      "componentType": 5123,
      "count": 73536,
      "type": "SCALAR",
      "byteOffset": 0
    }
  ],
  "bufferViews": [
    {
      "buffer": 0,
      "byteLength": 58392,
      "byteOffset": 0,
      "target": 34962,
      "byteStride": 12
    },
    {
      "buffer": 0,
      "byteLength": 58392,
      "byteOffset": 58392,
      "target": 34962,
      "byteStride": 12
    },
    {
      "buffer": 0,
      "byteLength": 38928,
      "byteOffset": 116784,
      "target": 34962,
      "byteStride": 8
    },
    {
      "buffer": 0,
      "byteLength": 58368,
      "byteOffset": 155712,
      "target": 34963
    },
    {
      "buffer": 0,
      "byteLength": 13368,
      "byteOffset": 214080,
      "target": 34962,
      "byteStride": 12
    },
    {
      "buffer": 0,
      "byteLength": 13368,
      "byteOffset": 227448,
      "target": 34962,
      "byteStride": 12
    },
    {
      "buffer": 0,
      "byteLength": 8912,
      "byteOffset": 240816,
      "target": 34962,
      "byteStride": 8
    },
    {
      "buffer": 0,
      "byteLength": 13344,
      "byteOffset": 249728,
      "target": 34963
    },
    {
      "buffer": 0,
      "byteLength": 147096,
      "byteOffset": 263072,
      "target": 34962,
      "byteStride": 12
    },
    {
      "buffer": 0,
      "byteLength": 147096,
      "byteOffset": 410168,
      "target": 34962,
      "byteStride": 12
    },
    {
      "buffer": 0,
      "byteLength": 98064,
      "byteOffset": 557264,
      "target": 34962,
      "byteStride": 8
    },
    {
      "buffer": 0,
      "byteLength": 147072,
      "byteOffset": 655328,
      "target": 34963
    }
  ],
  "buffers": [
    {
      "name": "escudo_universae",
      "byteLength": 802400,
      "uri": "data:application/octet-stream;base64,"
    }
  ]
}
